{
    "asset" : {
        "generator" : "Khronos glTF Blender I/O v3.4.50",
        "version" : "2.0"
    },
    "extensionsUsed" : [
        "KHR_materials_clearcoat",
        "KHR_materials_transmission"
    ],
    "scene" : 0,
    "scenes" : [
        {
            "name" : "Scene",
            "nodes" : [
                6,
                7,
                8
            ]
        }
    ],
    "nodes" : [
        {
            "mesh" : 0,
            "name" : "Object_2"
        },
        {
            "mesh" : 1,
            "name" : "Object_3"
        },
        {
            "mesh" : 2,
            "name" : "Object_4"
        },
        {
            "mesh" : 3,
            "name" : "Object_5"
        },
        {
            "mesh" : 4,
            "name" : "Object_6"
        },
        {
            "mesh" : 5,
            "name" : "Object_7"
        },
        {
            "children" : [
                0,
                1,
                2,
                3,
                4,
                5
            ],
            "name" : "05 Parfum",
            "rotation" : [
                -0.70710688829422,
                0,
                0,
                0.7071066498756409
            ]
        },
        {
            "mesh" : 6,
            "name" : "Cube.001"
        },
        {
            "mesh" : 7,
            "name" : "Cube"
        }
    ],
    "animations" : [
        {
            "channels" : [
                {
                    "sampler" : 0,
                    "target" : {
                        "node" : 7,
                        "path" : "rotation"
                    }
                }
            ],
            "name" : "CubeAction",
            "samplers" : [
                {
                    "input" : 30,
                    "interpolation" : "LINEAR",
                    "output" : 31
                }
            ]
        }
    ],
    "materials" : [
        {
            "doubleSided" : true,
            "extensions" : {
                "KHR_materials_clearcoat" : {
                    "clearcoatFactor" : 1,
                    "clearcoatRoughnessFactor" : 0.1846417635679245
                }
            },
            "name" : "Burnished_032Aluminum_046lxp",
            "pbrMetallicRoughness" : {
                "baseColorFactor" : [
                    0.9117890000343323,
                    0.9117890000343323,
                    0.9117890000343323,
                    1
                ],
                "roughnessFactor" : 0.28220275044441223
            }
        },
        {
            "alphaMode" : "BLEND",
            "doubleSided" : true,
            "extensions" : {
                "KHR_materials_clearcoat" : {
                    "clearcoatFactor" : 1,
                    "clearcoatRoughnessFactor" : 0
                },
                "KHR_materials_transmission" : {
                    "transmissionFactor" : 1
                }
            },
            "name" : "Default",
            "pbrMetallicRoughness" : {
                "baseColorFactor" : [
                    0,
                    0,
                    0,
                    0.25
                ],
                "metallicFactor" : 0,
                "roughnessFactor" : 0
            }
        },
        {
            "doubleSided" : true,
            "name" : "None",
            "pbrMetallicRoughness" : {
                "baseColorFactor" : [
                    0.0027398010715842247,
                    0.0027398010715842247,
                    0.0027398010715842247,
                    1
                ],
                "metallicFactor" : 0,
                "roughnessFactor" : 0.6000000238418579
            }
        },
        {
            "doubleSided" : true,
            "extensions" : {
                "KHR_materials_clearcoat" : {
                    "clearcoatFactor" : 1,
                    "clearcoatRoughnessFactor" : 0.3919588327407837
                }
            },
            "name" : "borracha",
            "pbrMetallicRoughness" : {
                "baseColorFactor" : [
                    0.01175063755363226,
                    0.01175063755363226,
                    0.01175063755363226,
                    1
                ],
                "metallicFactor" : 0,
                "roughnessFactor" : 0.3763338327407837
            }
        },
        {
            "alphaMode" : "BLEND",
            "doubleSided" : true,
            "extensions" : {
                "KHR_materials_transmission" : {
                    "transmissionFactor" : 0.10804115980863571
                }
            },
            "name" : "liquido",
            "pbrMetallicRoughness" : {
                "baseColorFactor" : [
                    0,
                    0,
                    0,
                    0.8919588327407837
                ],
                "metallicFactor" : 0,
                "roughnessFactor" : 0.6000000238418579
            }
        },
        {
            "extensions" : {
                "KHR_materials_clearcoat" : {
                    "clearcoatFactor" : 1,
                    "clearcoatRoughnessFactor" : 0.03999999910593033
                }
            },
            "name" : "vidro_032pedro",
            "pbrMetallicRoughness" : {
                "baseColorFactor" : [
                    1,
                    0.7502629160881042,
                    0.0875646248459816,
                    1
                ],
                "metallicFactor" : 0.5565930008888245,
                "roughnessFactor" : 0
            }
        },
        {
            "doubleSided" : true,
            "name" : "Material.001",
            "pbrMetallicRoughness" : {
                "baseColorFactor" : [
                    0.800000011920929,
                    0.800000011920929,
                    0.800000011920929,
                    1
                ],
                "metallicFactor" : 0,
                "roughnessFactor" : 0.5
            }
        },
        {
            "doubleSided" : true,
            "name" : "Material",
            "pbrMetallicRoughness" : {
                "baseColorFactor" : [
                    0.800000011920929,
                    0.800000011920929,
                    0.800000011920929,
                    1
                ],
                "metallicFactor" : 0,
                "roughnessFactor" : 0.5
            }
        }
    ],
    "meshes" : [
        {
            "name" : "Object_0",
            "primitives" : [
                {
                    "attributes" : {
                        "POSITION" : 0,
                        "TEXCOORD_0" : 1,
                        "NORMAL" : 2
                    },
                    "indices" : 3,
                    "material" : 0
                }
            ]
        },
        {
            "name" : "Object_1",
            "primitives" : [
                {
                    "attributes" : {
                        "POSITION" : 4,
                        "TEXCOORD_0" : 5,
                        "NORMAL" : 6
                    },
                    "indices" : 7,
                    "material" : 1
                }
            ]
        },
        {
            "name" : "Object_2",
            "primitives" : [
                {
                    "attributes" : {
                        "POSITION" : 8,
                        "NORMAL" : 9
                    },
                    "indices" : 10,
                    "material" : 2
                }
            ]
        },
        {
            "name" : "Object_3",
            "primitives" : [
                {
                    "attributes" : {
                        "POSITION" : 11,
                        "TEXCOORD_0" : 12,
                        "NORMAL" : 13
                    },
                    "indices" : 14,
                    "material" : 3
                }
            ]
        },
        {
            "name" : "Object_4",
            "primitives" : [
                {
                    "attributes" : {
                        "POSITION" : 15,
                        "TEXCOORD_0" : 16,
                        "NORMAL" : 17
                    },
                    "indices" : 18,
                    "material" : 4
                }
            ]
        },
        {
            "name" : "Object_5",
            "primitives" : [
                {
                    "attributes" : {
                        "POSITION" : 19,
                        "TEXCOORD_0" : 20,
                        "NORMAL" : 21
                    },
                    "indices" : 22,
                    "material" : 5
                }
            ]
        },
        {
            "name" : "Cube.001",
            "primitives" : [
                {
                    "attributes" : {
                        "POSITION" : 23,
                        "TEXCOORD_0" : 24,
                        "NORMAL" : 25
                    },
                    "indices" : 26,
                    "material" : 6
                }
            ]
        },
        {
            "name" : "Cube",
            "primitives" : [
                {
                    "attributes" : {
                        "POSITION" : 27,
                        "TEXCOORD_0" : 28,
                        "NORMAL" : 29
                    },
                    "indices" : 26,
                    "material" : 7
                }
            ]
        }
    ],
    "accessors" : [
        {
            "bufferView" : 0,
            "componentType" : 5126,
            "count" : 7449,
            "max" : [
                0.6115689873695374,
                0.6113370060920715,
                1.8515499830245972
            ],
            "min" : [
                -0.6115689873695374,
                -0.6113370060920715,
                1.086300015449524
            ],
            "type" : "VEC3"
        },
        {
            "bufferView" : 1,
            "componentType" : 5126,
            "count" : 7449,
            "type" : "VEC2"
        },
        {
            "bufferView" : 2,
            "componentType" : 5126,
            "count" : 7449,
            "type" : "VEC3"
        },
        {
            "bufferView" : 3,
            "componentType" : 5123,
            "count" : 33408,
            "type" : "SCALAR"
        },
        {
            "bufferView" : 4,
            "componentType" : 5126,
            "count" : 6182,
            "max" : [
                1.7050000429153442,
                0.7302430272102356,
                2.4605000019073486
            ],
            "min" : [
                -1.7050000429153442,
                -0.7302430272102356,
                -2.640000104904175
            ],
            "type" : "VEC3"
        },
        {
            "bufferView" : 5,
            "componentType" : 5126,
            "count" : 6182,
            "type" : "VEC2"
        },
        {
            "bufferView" : 6,
            "componentType" : 5126,
            "count" : 6182,
            "type" : "VEC3"
        },
        {
            "bufferView" : 7,
            "componentType" : 5123,
            "count" : 21756,
            "type" : "SCALAR"
        },
        {
            "bufferView" : 8,
            "componentType" : 5126,
            "count" : 2304,
            "max" : [
                0.5361229777336121,
                0.5413089990615845,
                1.7339260578155518
            ],
            "min" : [
                -0.5370309948921204,
                -0.6232240200042725,
                1.4311740398406982
            ],
            "type" : "VEC3"
        },
        {
            "bufferView" : 9,
            "componentType" : 5126,
            "count" : 2304,
            "type" : "VEC3"
        },
        {
            "bufferView" : 10,
            "componentType" : 5123,
            "count" : 13824,
            "type" : "SCALAR"
        },
        {
            "bufferView" : 11,
            "componentType" : 5126,
            "count" : 6160,
            "max" : [
                0.11694999784231186,
                -0.6007390022277832,
                1.6675790548324585
            ],
            "min" : [
                -0.11694999784231186,
                -0.6623730063438416,
                1.4319339990615845
            ],
            "type" : "VEC3"
        },
        {
            "bufferView" : 12,
            "componentType" : 5126,
            "count" : 6160,
            "type" : "VEC2"
        },
        {
            "bufferView" : 13,
            "componentType" : 5126,
            "count" : 6160,
            "type" : "VEC3"
        },
        {
            "bufferView" : 14,
            "componentType" : 5123,
            "count" : 27072,
            "type" : "SCALAR"
        },
        {
            "bufferView" : 15,
            "componentType" : 5126,
            "count" : 1412,
            "max" : [
                1.6403900384902954,
                0.6962609887123108,
                0.8063009977340698
            ],
            "min" : [
                -1.6403900384902954,
                -0.6962609887123108,
                -2.5459001064300537
            ],
            "type" : "VEC3"
        },
        {
            "bufferView" : 16,
            "componentType" : 5126,
            "count" : 1412,
            "type" : "VEC2"
        },
        {
            "bufferView" : 17,
            "componentType" : 5126,
            "count" : 1412,
            "type" : "VEC3"
        },
        {
            "bufferView" : 18,
            "componentType" : 5123,
            "count" : 5685,
            "type" : "SCALAR"
        },
        {
            "bufferView" : 19,
            "componentType" : 5126,
            "count" : 1556,
            "max" : [
                1.6453200578689575,
                0.7046849727630615,
                1.2527300119400024
            ],
            "min" : [
                -1.6453200578689575,
                -0.7046849727630615,
                -2.5543100833892822
            ],
            "type" : "VEC3"
        },
        {
            "bufferView" : 20,
            "componentType" : 5126,
            "count" : 1556,
            "type" : "VEC2"
        },
        {
            "bufferView" : 21,
            "componentType" : 5126,
            "count" : 1556,
            "type" : "VEC3"
        },
        {
            "bufferView" : 22,
            "componentType" : 5123,
            "count" : 6792,
            "type" : "SCALAR"
        },
        {
            "bufferView" : 23,
            "componentType" : 5126,
            "count" : 24,
            "max" : [
                1,
                1,
                1
            ],
            "min" : [
                -1,
                -1,
                -1
            ],
            "type" : "VEC3"
        },
        {
            "bufferView" : 24,
            "componentType" : 5126,
            "count" : 24,
            "type" : "VEC2"
        },
        {
            "bufferView" : 25,
            "componentType" : 5126,
            "count" : 24,
            "type" : "VEC3"
        },
        {
            "bufferView" : 26,
            "componentType" : 5123,
            "count" : 36,
            "type" : "SCALAR"
        },
        {
            "bufferView" : 27,
            "componentType" : 5126,
            "count" : 24,
            "max" : [
                1,
                1,
                1
            ],
            "min" : [
                -1,
                -1,
                -1
            ],
            "type" : "VEC3"
        },
        {
            "bufferView" : 28,
            "componentType" : 5126,
            "count" : 24,
            "type" : "VEC2"
        },
        {
            "bufferView" : 29,
            "componentType" : 5126,
            "count" : 24,
            "type" : "VEC3"
        },
        {
            "bufferView" : 30,
            "componentType" : 5126,
            "count" : 100,
            "max" : [
                4.166666666666667
            ],
            "min" : [
                0.041666666666666664
            ],
            "type" : "SCALAR"
        },
        {
            "bufferView" : 31,
            "componentType" : 5126,
            "count" : 100,
            "type" : "VEC4"
        }
    ],
    "bufferViews" : [
        {
            "buffer" : 0,
            "byteLength" : 89388,
            "byteOffset" : 0,
            "target" : 34962
        },
        {
            "buffer" : 0,
            "byteLength" : 59592,
            "byteOffset" : 89388,
            "target" : 34962
        },
        {
            "buffer" : 0,
            "byteLength" : 89388,
            "byteOffset" : 148980,
            "target" : 34962
        },
        {
            "buffer" : 0,
            "byteLength" : 66816,
            "byteOffset" : 238368,
            "target" : 34963
        },
        {
            "buffer" : 0,
            "byteLength" : 74184,
            "byteOffset" : 305184,
            "target" : 34962
        },
        {
            "buffer" : 0,
            "byteLength" : 49456,
            "byteOffset" : 379368,
            "target" : 34962
        },
        {
            "buffer" : 0,
            "byteLength" : 74184,
            "byteOffset" : 428824,
            "target" : 34962
        },
        {
            "buffer" : 0,
            "byteLength" : 43512,
            "byteOffset" : 503008,
            "target" : 34963
        },
        {
            "buffer" : 0,
            "byteLength" : 27648,
            "byteOffset" : 546520,
            "target" : 34962
        },
        {
            "buffer" : 0,
            "byteLength" : 27648,
            "byteOffset" : 574168,
            "target" : 34962
        },
        {
            "buffer" : 0,
            "byteLength" : 27648,
            "byteOffset" : 601816,
            "target" : 34963
        },
        {
            "buffer" : 0,
            "byteLength" : 73920,
            "byteOffset" : 629464,
            "target" : 34962
        },
        {
            "buffer" : 0,
            "byteLength" : 49280,
            "byteOffset" : 703384,
            "target" : 34962
        },
        {
            "buffer" : 0,
            "byteLength" : 73920,
            "byteOffset" : 752664,
            "target" : 34962
        },
        {
            "buffer" : 0,
            "byteLength" : 54144,
            "byteOffset" : 826584,
            "target" : 34963
        },
        {
            "buffer" : 0,
            "byteLength" : 16944,
            "byteOffset" : 880728,
            "target" : 34962
        },
        {
            "buffer" : 0,
            "byteLength" : 11296,
            "byteOffset" : 897672,
            "target" : 34962
        },
        {
            "buffer" : 0,
            "byteLength" : 16944,
            "byteOffset" : 908968,
            "target" : 34962
        },
        {
            "buffer" : 0,
            "byteLength" : 11370,
            "byteOffset" : 925912,
            "target" : 34963
        },
        {
            "buffer" : 0,
            "byteLength" : 18672,
            "byteOffset" : 937284,
            "target" : 34962
        },
        {
            "buffer" : 0,
            "byteLength" : 12448,
            "byteOffset" : 955956,
            "target" : 34962
        },
        {
            "buffer" : 0,
            "byteLength" : 18672,
            "byteOffset" : 968404,
            "target" : 34962
        },
        {
            "buffer" : 0,
            "byteLength" : 13584,
            "byteOffset" : 987076,
            "target" : 34963
        },
        {
            "buffer" : 0,
            "byteLength" : 288,
            "byteOffset" : 1000660,
            "target" : 34962
        },
        {
            "buffer" : 0,
            "byteLength" : 192,
            "byteOffset" : 1000948,
            "target" : 34962
        },
        {
            "buffer" : 0,
            "byteLength" : 288,
            "byteOffset" : 1001140,
            "target" : 34962
        },
        {
            "buffer" : 0,
            "byteLength" : 72,
            "byteOffset" : 1001428,
            "target" : 34963
        },
        {
            "buffer" : 0,
            "byteLength" : 288,
            "byteOffset" : 1001500,
            "target" : 34962
        },
        {
            "buffer" : 0,
            "byteLength" : 192,
            "byteOffset" : 1001788,
            "target" : 34962
        },
        {
            "buffer" : 0,
            "byteLength" : 288,
            "byteOffset" : 1001980,
            "target" : 34962
        },
        {
            "buffer" : 0,
            "byteLength" : 400,
            "byteOffset" : 1002268
        },
        {
            "buffer" : 0,
            "byteLength" : 1600,
            "byteOffset" : 1002668
        }
    ],
    "buffers" : [
        {
            "byteLength" : 1004268,
            "uri" : "data:application/octet-stream;base64,"
        }
    ]
}
